<svg width="53" height="47" viewBox="0 0 53 47" fill="none" xmlns="http://www.w3.org/2000/svg">
<path d="M32.9343 20.538C35.8487 19.8347 38.5499 17.7518 40.1522 14.61C41.7533 11.4703 41.9083 7.95665 40.8532 5.01966C37.939 5.72312 35.2383 7.80647 33.6362 10.9482C32.0352 14.0878 31.8793 17.6011 32.9343 20.538Z" fill="#546224"/>
<path d="M19.3095 25.7035C16.6434 27.0946 13.3099 27.2907 10.1747 25.9499C7.0268 24.6035 4.76555 22.0008 3.78753 19.0333C6.45358 17.6426 9.78709 17.447 12.922 18.7878C16.0696 20.1341 18.3314 22.7363 19.3095 25.7035Z" fill="#546224"/>
<path d="M19.0901 25.6804C19.385 27.7867 18.7991 30.0914 17.3062 31.9302C15.8164 33.7651 13.7467 34.7371 11.7226 34.7696C11.4282 32.6636 12.0152 30.3595 13.5079 28.5211C14.9975 26.6865 17.0662 25.7131 19.0901 25.6804Z" fill="#546224"/>
<path d="M32.7005 20.5426C33.7588 22.3557 35.6123 23.7325 37.878 24.1487C40.1518 24.5663 42.3454 23.9252 43.9244 22.5867C42.866 20.7735 41.0129 19.3957 38.7471 18.9796C36.4732 18.562 34.2795 19.2039 32.7005 20.5426Z" fill="#546224"/>
<path d="M18.147 17.7559L28.5641 13.8198C28.9007 13.6929 29.2723 13.8335 29.4381 14.1512L39.6733 33.7693C39.8778 34.1616 39.6883 34.6548 39.2727 34.8119L23.1758 40.8941C22.7664 41.0486 22.3251 40.8051 22.2351 40.3751L17.68 18.6117C17.6047 18.252 17.8046 17.8854 18.147 17.7559Z" stroke="#546224" stroke-width="1.03035"/>
<path d="M19.7405 18.44C17.5943 16.0292 14.6425 10.6346 20.0051 8.34237C25.3678 6.05014 27.0518 12.234 27.2235 15.6125" stroke="#546224" stroke-width="1.03035" stroke-linecap="round"/>
</svg>
