<svg version="1.2" xmlns="http://www.w3.org/2000/svg" viewBox="0 0 579 674" width="579" height="674">
	<style>
		.s0 { fill: #fccfd8 } 
		.s1 { fill: none;stroke: #c8c260;stroke-linecap: round;stroke-width: 12.6 } 
		.s2 { fill: #546224 } 
		.s3 { fill: #c8c260 } 
		.s4 { fill: none;stroke: #c8c260;stroke-linecap: round;stroke-width: 2.3 } 
		.s5 { fill: none;stroke: #bbb44f;stroke-width: 5.1 } 
		.s6 { fill: none;stroke: #546224;stroke-linecap: round;stroke-width: 7.4 } 
		.s7 { fill: none;stroke: #bbb44f;stroke-width: 1.6 } 
		.s8 { fill: none;stroke: #546224;stroke-linecap: round;stroke-width: 3.1 } 
		.s9 { fill: none;stroke: #c8c260;stroke-width: 4.4 } 
	</style>
	<path class="s0" d="m300.61 297.08q0.48 0.48 0.96 0.96c1.65-0.22 2.96 0.37 4.14 1.53 3.14 3.09 6.95 5.14 10.71 7.37 2.74 1.61 6.19 2.95 7.36 6.55 16.41 10.03 32.58 20.5 50.22 28.35 5.6 2.3 11.21 4.57 16.49 7.61 2.76 1.59 5.67 2.95 8.91 3.2 1.07 0.08 2.64 0.58 3.02-0.99 0.34-1.36-1.11-1.6-2.02-2.08-2.82-1.48-5.42-3.24-7.62-5.59-0.82-0.88-1.22-1.72-0.85-2.85 0.37-1.07 1.33-1.31 2.3-1.3 6.73 0.06 13.47-0.45 20.19 0.37q1.1 0.04 2.2 0.06c3.27-0.44 6.51-1.03 9.79 0.13 1.69 0.6 3.52 0.46 5.27 0.06 0.79-0.17 1.81-0.36 1.85-1.36 0.03-0.95-0.89-1.45-1.65-1.62-2.24-0.5-4.13-1.73-6.19-2.61-8.16-3.47-16.3-7.74-25.49-6.25-5.18 0.84-10.28 1.15-15.47 1.19-5.99 0.05-10.37-3.6-15.12-6.37-0.77-0.44-0.66-1.46-0.68-2.29q-11.74-11.29-23.47-22.58c-1.13 0.3-2.16-0.13-2.95-0.81-3.74-3.19-7.33-6.56-10.96-9.85-3.3-2.97-6.03-6.58-9.83-9.14-1.3-0.88-2.69-2.45-1.87-4.55l-0.14-0.12c-5.22-1.71-8.96-5.46-11.41-9.99-2.37-4.37-5.1-8.47-7.65-12.7-3.67-6.08-7.22-12.23-10.73-18.41-0.42-0.74-0.21-1.85-0.3-2.78-5.89-9.65-10.29-20.18-17.1-29.28-3.7-2.96-7.36-5.97-11.12-8.84-4.41-3.37-9.94-4.83-14.31-8.31-0.85-0.67-2.03-0.98-1.02-2.36-2.26-5.49-1.92-11.26-1.89-17-1.27 2.66-0.01 5.66-1.19 8.33 0.6-3.2-1.69-6.78 1.31-9.67 0.36-0.83 0.88-1.82 1.3-0.14 2.02 8.15 7.4 13.96 13.58 19.07 3.9 3.22 8.09 6.03 13.03 7.69 3.8 1.28 7.28 0.76 10.63-0.84 3.03-1.44 4.51-4.41 3.23-7.42-3.55-8.31 0.13-14.1 5.95-19.36 0.9-0.8 1.82-1.5 1.64-2.88-0.37-3.1 1.68-5.63 2.57-8.29 1.87-5.6-0.4-9.08-3.86-12.55-3.28-3.29-7.21-5.66-11.27-7.84-1.11-0.59-2.99-0.75-2.41-2.86-8.3-6.43-13.25-14.87-15.37-25.13-0.71-3.45-1.63-6.9-3.2-10.11-1.35 0.06-2.26-0.43-2.56-1.87-1.06-5.18-4.98-8.7-8.14-12.38-5.68-6.6-13.82-9.52-22.08-11.5-8.8-2.12-17.03 0.36-24.89 4.3-2.64 1.33-5.34 2.39-8.31 2.64l-0.1 0.06c-1.04 1.21-1.38 3.16-3.17 3.58-2.94 0.69-4.76 2.89-6.95 4.64-1.66 1.33-2.49 3.41-4.5 4.43-3.82 1.93-5.73 5.59-7.12 9.28-1.59 4.22-0.32 7.33 2.95 9.72 0.15 0.11 0.14 0.44 0.2 0.67q0.36 0.56 0.72 1.12c1.05 0.8 2.1 1.73 2.45 2.98 1.9 6.91 3.74 14.47 0.47 20.77-2.66 5.13-2.1 7.65 1.21 11.73 3.78 4.65 3.61 11.37 6.89 16.5 0.58 0.9 0.91 1.9 1.94 2.42 5.72 2.92 11.6 4.69 18.02 2.54 1.43-0.48 2.61-0.41 2.94 1.4q0.05 0.51 0.1 1.02c2.38 1.42 3.36 3.35 2.95 6.23-0.54 3.64-0.3 7.32 0.03 11 0.32 3.52 0.25 6.93-2.9 9.64-4.06 3.48-7.52 7.6-11.7 11.01-3.76 3.08-6.25 7.37-9.37 11.06-0.87 1.02-1.24 2.79-3.21 2.09-5.66 6.94-9.61 14.64-10.49 23.69 1.2 3.33 0.4 6.78 0.59 10.18 0.12 1.99-0.39 4.05 0.55 5.93 2.42 4.84 1.34 10.66 4.3 15.36 0.3 0.49-0.05 1.38-0.08 2.09l0.01 0.02c1.08-0.07 2.37-0.24 2.72 1.04 1.15 4.22 3.95 7.5 6.07 11.17 3.61 6.25 6 12.85 7.27 20.02 1.01 5.68 2.01 11.36 2.31 17.1 0.41 8.2-1.1 16.3-3.35 24.08-1.82 6.28-2.57 12.99-6.02 18.77q-0.22 0.08-0.25 0.3c-0.77 6.16-1.11 12.29-2.49 18.46-2.57 11.42-2.98 23.24-2.58 35.01 0.27 8.17-0.71 16.38 0.6 24.52 0.99 6.17 1.79 12.37 2.96 18.52 1.16 6.06 3.02 11.83 4.51 17.73 1.26 5.04 3.87 9.67 4.28 14.93q0.08 0.4 0.16 0.79c3.48 1.52 2.79 5.49 4.66 7.95 3.84 5.05 5.77 11.13 9.59 16.34 3.48 4.76 7.21 9.05 11.18 13.32 2.01 2.17 4.15 4.68 5.1 7.74l0.13 0.1c2.12-0.42 3.21 0.4 3.17 2.61q0.42 0.2 0.85 0.4c1.55-0.04 3 0.06 4.35 1.08 4.13 3.12 8.52 5.92 12.48 9.23 3.41 2.86 7 5.83 7.45 10.84 0 0 0.06 0.04 0.06 0.05q0.28 0.35 0.57 0.71l0.14 0.25c2.55 0.12 6.85 6.12 6.95 9.68q-0.08 0.24 0.17 0.29c5.22 0.33 5.47 4.32 5.96 8.12-0.07 1.53 1.17 2.37 1.83 3.51 1.39 0.35 2.19 1.44 2.79 2.58 4.81 9.28 10.48 18.15 13.69 28.18 0.69 2.15 3.35 2.81 3.34 5.24-0.02 5.09 2.56 9.52 3.88 14.24 1.91 6.84 3.65 13.57 3.55 20.69q-0.15 0.24 0.06 0.41c2 1.94 2.33 4.52 2.77 7.07 0.29 1.61 1.01 2.95 2.69 3.44 0.94 0.28 2.14 0.28 2.55-0.69 1-2.39 2.93-4.47 3.09-7.1 0.41-6.95 0.8-13.9 1.38-20.85 0.7-8.41 2.69-16.22 5.97-23.83 2.66-6.13 1.37-8.69-5.25-9.9-0.81-0.15-1.71 0.02-2.47-0.22-4.07-1.33-8.38-2.66-10.3-6.88-2.66-5.84-5.52-11.65-6.64-18.1-0.84-4.88-4.46-9.04-3.59-14.43 0.27-1.64-1.3-2.58-2.69-3.43-9.98-6.12-19.38-13.03-27.56-21.46-3.77-3.89-7.17-8.13-10.76-12.2-0.83-0.94-1.45-1.9-0.8-3.19l-0.13-0.18c-2.46-0.26-3.27-1.74-3.02-4.03 0 0 0.03 0.18 0.04 0.18q-0.34-0.52-0.68-1.03l0.09 0.05c-0.33-0.11-0.75-0.12-1-0.34-4.3-3.86-6.49-9.29-10.04-13.74-0.51-0.63-1.09-3.22 0.96-3.92 1.75-0.59 2.61 0.84 3.66 2.08 3.24 3.83 5.68 8.24 9.03 12.04 2.39 2.71 5.99 4.73 6.66 8.81l-0.1-0.12q0.42 0.43 0.85 0.86 0.33 0.35 0.66 0.71c2.45 0.08 4.27 0.88 4.29 3.74q0.09 0.32 0.43 0.33c1.25-0.32 2.31-0.06 3.27 0.84 6.31 5.87 13.76 10.09 21.12 14.37 5.35 3.11 10.92 5.75 16.8 8 4.54 1.74 8.98 3.59 13.75 4.88 14.7 3.98 29.41 3.9 44.23 0.94 2.16-0.43 2.31-1.28 1.56-3.21-2.44-6.24-6.68-11.46-9.63-17.46-3.01-6.11-7.07-11.76-10.05-17.96l-0.02-0.02c-1.19-3.29-1.4-6.88-3.04-10.02-0.75-1.43-1.34-2.83-0.02-4.15 1.26-1.27 2.66-0.46 3.94 0.05 1.92 0.75 1.93 2.14 1.11 3.74 1.84 2.06 4.44 2.84 6.81 4.01 4.41 0.59 7.95 3.49 12.2 4.58 2.42 0.64 5.25 0.67 6.76 3.28q0.4 0.07 0.8 0.14c3.78-0.02 7.55 0.04 11.34 0.46 8.64 0.96 17.39 0.59 25.78-1.42 6.36-1.53 12.79-3.16 18.83-5.98 6.63-3.11 12.64-7.04 17.65-12.31 1.52-1.58 2.07-4.06 5.02-3.1q0.31-0.34 0.6-0.67c-0.07-0.98 0.26-1.83 0.67-2.71 2-4.25 1.01-5.74-3.63-5.15-3.66 0.46-7.28 0.21-10.94 0.16-7.94-0.11-15.73-1.02-23.26-3.42-3.8-1.2-8.3-0.71-11.22-4.26-1.74-1.22-3.74-1.8-5.75-2.33q-0.76 0.65-1.66 0.29c-9.22-3.82-17.25-9.95-26.54-13.66-0.4-0.16-0.76-0.6-1.01-0.99-2.62-4.16-6.91-6.33-10.66-9.2-3.49-2.68-7.21-5.33-8.45-9.98-2.72-0.21-4.74-1.39-5.61-4.09-0.31-0.96-0.96-1.58-1.63-2.26-3.3-3.37-6.45-6.87-9.03-10.86-3.65-5.64-7.63-11.08-10.92-16.92-2.75-4.86-6.13-9.56-6.73-15.41-5.63-11.88-11.36-23.72-16.42-35.86-3.27-7.86-6.05-15.95-10.53-23.25-2.93-3.23-6.66-5.97-6.81-10.92-3.4-4.82-7.33-9.19-11.49-13.36-1.08-0.07-2.18-0.17-2.69-1.34-0.9-2.03-2.74-3.24-4.09-4.88-5.14-6.23-8.81-13.19-8.65-21.43 0.15-8.22-0.06-16.41 1.07-24.7 1.25-9.19 3.94-18.27 3.42-27.69-0.05-0.92 0.03-2.01 1.19-2.31 1.09-0.29 1.97 0.43 2.34 1.25 1.57 3.46 4.63 5.92 6.24 9.32 0.6 1.26 1.64 2.38 1.42 3.94q0.34 0.47 0.68 0.95c1.2-0.14 1.85 0.57 2.64 1.4 4.69 4.84 6.47 11.87 12.06 16.04 0.26 0.19 0.43 0.57 0.52 0.9 2.25 7.58 8.59 12.38 12.66 18.72 1.71 2.65 5.73 3.62 5.48 7.65z"/>
	<path class="s0" d="m113.32 339.8c-7.61 3.89-15.72 5.08-24.17 4.57-5.3-0.32-9.98 1.5-14.19 4.57-1.65 1.2-3.12 2.63-2.45 5.02 7.82 4.53 16.19 3.77 24.5 2.25 7.47-1.36 14.25-4.99 21.46-7.15 3.45-1.04 6.15-4.37 10.22-3.4q0.37-0.16 0.75-0.31c0.18-1.03 0.87-1.65 1.7-2.16 4.92-2.96 10.25-5.18 14.97-8.54 1.42-1 3.11-2.87 5.42-1.55q0.35-0.24 0.7-0.46c0.21-0.79 0.77-1.1 1.54-1.1l-0.05 0.03c0.55-3.12 3.67-3.61 5.65-4.99 3.21-2.25 5.76-5.64 9.93-6.44 2.2-1.82 4.4-3.64 5.96-6.09-0.11-2.33 1.36-3.95 2.54-5.71 4.23-6.29 4.15-17.34-0.11-23.51-1.02-1.49-1.71-1.97-3.53-0.64-2.39 1.75-3.38 4.57-5.62 6.35-6.41 5.07-11.01 11.88-17.07 17.37-6.16 5.57-12.06 11.52-18.11 17.26-2.71 2.56-5.51 5.53-9.6 6.21l0.02-0.02c-2.04 4.61-6.05 6.78-10.47 8.44z"/>
	<path class="s0" d="m358.81 617.06c4.22 8.05 9.2 15.63 14.41 23.07 2.59 3.69 4.45 7.74 6.41 11.77 1.04 0.04 1.65 0.63 2.23 1.45 3.38 4.78 3.4 4.77 8.16 2.82 2.61-5.21 2.22-10.43 0.02-15.66-1.8-0.05-2.27-1.35-2.74-2.77-3.88-11.69-6.78-23.53-5.56-36 0.16-1.74-0.41-3.13-1.42-4.59-1.95-2.8-4.74-2.15-7.39-2.31-3.32-0.21-6.7 0.64-9.67-2.17-3.7-3.53-5.46-7.98-6.98-12.55-1.02-3.05-2.72-3.92-5.75-3.96-5.48-0.07-10.73 1.94-16.23 1.5-1.43-0.11-2.12 0.85-2.36 2.16l-0.04-0.04c1.46 0.33 1.91 1.36 1.86 2.73 6.5 7.53 12.51 15.43 18.15 23.62 2.71 0.72 6.91 7.36 6.91 10.94z"/>
	<path class="s0" d="m247.42 529.02c-0.65 1.29-0.03 2.25 0.81 3.2 3.58 4.06 6.98 8.31 10.76 12.19 8.17 8.43 17.57 15.34 27.55 21.46 1.4 0.86 2.95 1.79 2.7 3.43-0.87 5.39 2.74 9.56 3.59 14.44 1.11 6.45 3.98 12.25 6.63 18.09 1.92 4.22 6.23 5.55 10.3 6.88 0.77 0.25 1.66 0.07 2.47 0.22 6.62 1.22 7.91 3.77 5.26 9.91-3.29 7.6-5.28 15.41-5.98 23.82-0.57 6.95-0.96 13.9-1.38 20.85-0.15 2.63-2.09 4.72-3.09 7.1-0.41 0.98-1.61 0.97-2.55 0.7-1.68-0.49-2.4-1.83-2.68-3.45-0.45-2.54-0.78-5.13-2.78-7.07 0.24 3.45 0.79 6.82 2.25 9.99 0.67 1.46 1.56 2.69 3.32 2.87 1.97 0.2 3.07-1.05 3.92-2.55 2.75-4.82 2.91-10.22 3.21-15.52 0.64-11.4 1.51-22.73 5.89-33.46 0.85-2.09 1.68-4.19 2.62-6.24 1.3-2.82 0.31-4.78-2.17-6.26-2.9-1.73-6.18-2.45-9.37-3.29-4.93-1.31-7.87-4.41-9.7-9.02-3.75-9.43-6.6-19.1-8.4-29.08-0.24-1.34-0.59-2.29-1.91-3.09-3.19-1.91-6.57-3.48-9.02-6.64-1.07-1.38-3.74-1.57-5.43-2.97-7.54-6.26-14.88-12.69-21.08-20.4-1.7-2.11-3.63-4.27-5.73-6.13z"/>
	<path class="s0" d="m340.16 524.84c2.98 6.2 7.03 11.85 10.05 17.96 2.95 5.99 7.18 11.21 9.63 17.46 0.75 1.93 0.59 2.78-1.57 3.21-14.82 2.96-29.52 3.04-44.23-0.94-4.77-1.28-9.21-3.13-13.75-4.88-5.87-2.25-11.45-4.89-16.79-8-7.36-4.29-14.82-8.51-21.12-14.37-0.97-0.9-2.03-1.16-3.27-0.84 7.01 6.56 15.17 11.52 23.4 16.32 10.84 6.34 22.09 11.76 34.55 14.15 14.86 2.84 29.69 2.92 44.52-0.41 2.61-0.59 2.63-1.15 1.26-3.3-8.86-13.91-17.72-27.85-23.19-43.57q-0.74-2.19-1.32-4.43c-0.08-0.28 0.13-0.64 0.22-1.01 1.58 0.2 2.26 1.73 3.58 2.24 0.81-1.6 0.81-2.99-1.1-3.74-1.29-0.51-2.68-1.32-3.94-0.05-1.33 1.33-0.74 2.72 0.01 4.15 1.65 3.14 1.85 6.74 3.04 10.02q0.13-0.23 0.25-0.46-0.12 0.25-0.23 0.49z"/>
	<path class="s0" d="m196.93 496.46c-0.42-5.26-3.03-9.89-4.29-14.93-1.49-5.91-3.35-11.67-4.5-17.73-1.18-6.16-1.97-12.35-2.97-18.52-1.32-8.14-0.33-16.35-0.6-24.52-0.4-11.77 0.02-23.59 2.58-35.01 1.39-6.18 1.72-12.3 2.5-18.46-2.16 2.63-1.97 5.96-2.54 9-3.87 20.49-5.09 41.18-3.87 61.97 1.11 18.9 4.55 37.4 11.72 55.05 0.45 1.12 0.44 2.66 1.97 3.16z"/>
	<path class="s0" d="m123.76 331.37c4.1-0.67 6.9-3.64 9.61-6.21 6.05-5.73 11.95-11.68 18.11-17.25 6.06-5.49 10.66-12.31 17.06-17.37 2.25-1.78 3.24-4.59 5.63-6.36 1.81-1.33 2.5-0.85 3.53 0.65 4.26 6.17 4.34 17.21 0.11 23.51-1.18 1.75-2.66 3.38-2.54 5.71 7.59-6.94 8.6-15.31 5.38-24.6-0.66-1.9-1.3-3.82-2.09-5.67-1.56-3.71-1.76-3.75-4.75-1.17-6.29 5.43-11.49 11.93-17.21 17.92-9.59 10.02-19.8 19.36-30.34 28.35-0.89 0.76-1.67 1.66-2.5 2.49z"/>
	<path class="s0" d="m189.89 366.97c3.46-5.78 4.2-12.49 6.02-18.77 2.25-7.77 3.77-15.88 3.35-24.08-0.29-5.74-1.29-11.42-2.3-17.1-1.27-7.17-3.66-13.77-7.27-20.02-2.12-3.67-4.92-6.95-6.07-11.17-0.35-1.28-1.66-1.1-2.73-1.04 2.13 5.13 6.05 9.18 8.33 14.26 8.21 18.3 11.39 37 5.58 56.66-1.88 6.34-2.69 12.98-5.13 19.18-0.22 0.57 0.14 1.37 0.23 2.07z"/>
	<path class="s0" d="m331.92 579.8c0.25-1.31 0.94-2.27 2.36-2.16 5.5 0.44 10.76-1.57 16.24-1.5 3.03 0.04 4.73 0.91 5.74 3.96 1.52 4.57 3.28 9.02 6.99 12.55 2.96 2.82 6.34 1.97 9.67 2.17 2.65 0.16 5.44-0.49 7.38 2.31 1.02 1.46 1.59 2.85 1.42 4.59-1.21 12.48 1.68 24.31 5.56 36 0.47 1.42 0.94 2.73 2.74 2.77-2.46-7.39-5.22-14.68-6.37-22.47-0.87-5.89-1.33-11.76-0.92-17.7 0.33-4.8-0.58-5.76-5.38-6.23q-0.18-0.04-0.36-0.04c-11.18 0.85-17.07-5.54-20.04-15.23-1.25-4.09-3.23-4.78-7.09-4.09-6.84 1.23-13.77 1.85-21.43 2.06 1.53 1.23 1.97 2.64 3.47 3z"/>
	<path class="s0" d="m266.59 251.43c0.22-1.56-0.82-2.67-1.42-3.93-1.61-3.41-4.67-5.86-6.24-9.33-0.36-0.81-1.24-1.54-2.34-1.25-1.16 0.31-1.24 1.39-1.19 2.32 0.52 9.42-2.17 18.5-3.42 27.68-1.13 8.3-0.92 16.48-1.07 24.71-0.16 8.23 3.51 15.2 8.65 21.43 1.35 1.63 3.19 2.84 4.09 4.87 0.51 1.17 1.61 1.27 2.69 1.35-1.04-1.28-1.99-2.65-3.13-3.83-10.26-10.58-12.29-23.51-11.11-37.52 1.08-12.87 4.43-25.43 4.64-39.43 3.69 4.83 6.78 8.88 9.87 12.93z"/>
	<path class="s0" d="m447.31 504.11c-2.96-0.97-3.51 1.52-5.02 3.1-5.02 5.27-11.02 9.2-17.65 12.3-6.05 2.83-12.48 4.46-18.83 5.98-8.39 2.01-17.14 2.38-25.78 1.43-3.8-0.42-7.56-0.49-11.35-0.46 7.38 2 14.92 2.42 22.51 2.17 17.23-0.57 33.11-5.15 46.98-15.7 3.38-2.57 6.48-5.47 9.14-8.82z"/>
	<path class="s0" d="m368.94 321.15c0.01 0.84-0.09 1.85 0.68 2.3 4.76 2.76 9.13 6.41 15.11 6.36 5.19-0.04 10.3-0.35 15.47-1.19 9.19-1.49 17.33 2.78 25.49 6.25 2.06 0.87 3.95 2.12 6.19 2.61 0.78 0.17 1.69 0.67 1.65 1.62-0.04 1.01-1.06 1.19-1.84 1.37-1.76 0.39-3.58 0.54-5.28-0.07-3.28-1.16-6.52-0.57-9.78-0.12 4.33 0.58 8.67 1.2 13.02 1.73 1.05 0.13 2.15 0.13 3.19-0.08 1.34-0.25 3.1-0.33 3.26-2.14 0.13-1.52-0.93-2.66-2.32-3.3-3.32-1.5-6.76-2.72-10.07-4.3-10.1-4.84-20.62-6.62-31.69-3.81-7.97 2.01-14.42-1.65-20.7-5.79-0.77-0.51-1.58-0.95-2.38-1.43z"/>
	<path class="s0" d="m210.11 165.47c-0.34-1.82-1.51-1.88-2.94-1.41-6.43 2.15-12.3 0.39-18.02-2.53-1.02-0.53-1.37-1.52-1.94-2.42-3.28-5.13-3.12-11.85-6.89-16.5-3.32-4.08-3.88-6.61-1.21-11.73 3.27-6.31 1.43-13.86-0.48-20.77-0.34-1.25-1.39-2.17-2.44-2.98q-0.36 0-0.73 0l0.05-0.02c1.37 4.01 2.94 7.98 3.53 12.22 0.75 5.46 0.03 10.55-3.53 15.08-2.78 3.55-2.2 4.05 1.71 6.64 1.99 1.32 4.65 3.39 3.46 6.86-0.18 0.5-0.14 1.22 0.1 1.69 1.8 3.71 3.49 7.51 5.59 11.05 2.03 3.41 5.56 4.69 9.35 5.01 3.77 0.32 7.56 0.52 11.3-0.44 1.02-0.25 2.11-0.46 3.08 0.24z"/>
	<path class="s0" d="m414.42 340.2c-6.72-0.81-13.47-0.31-20.2-0.37-0.97-0.01-1.93 0.23-2.29 1.31-0.38 1.12 0.02 1.97 0.85 2.85 2.2 2.34 4.79 4.11 7.62 5.59 0.89 0.46 2.35 0.71 2.02 2.07-0.39 1.58-1.96 1.08-3.03 0.99-3.23-0.25-6.15-1.61-8.91-3.2-5.28-3.03-10.88-5.31-16.49-7.61 1.78 2.64 4.69 3.74 7.36 4.89 7.13 3.08 13.84 7.21 21.57 8.82 1.37 0.29 2.92 1.06 3.8-0.61 0.83-1.56-0.39-2.79-1.46-3.64-2.03-1.61-4.24-3-6.38-4.46-2.14-1.45-4.42-2.72-6.06-5.47 7.34-1.06 14.51-0.53 21.6-1.17z"/>
	<path class="s0" d="m298.98 660.4c0.09-7.13-1.64-13.86-3.55-20.7-1.32-4.72-3.9-9.16-3.88-14.24 0.01-2.43-2.65-3.09-3.34-5.23-3.22-10.03-8.89-18.91-13.7-28.19-0.59-1.14-1.39-2.22-2.78-2.57 0.66 2.94 2.6 5.26 3.98 7.84 7.12 13.39 13.68 26.99 18.17 41.54 2.19 7.08 3.28 14.4 5.09 21.55z"/>
	<path class="s0" d="m194.16 73.63c2.97-0.25 5.68-1.31 8.32-2.64 7.85-3.94 16.08-6.42 24.88-4.3 8.26 1.99 16.4 4.9 22.09 11.51 3.16 3.68 7.07 7.19 8.14 12.37 0.3 1.45 1.2 1.93 2.56 1.87-3.86-11.94-12.06-19.7-23.42-24.54-15.36-6.55-29.23-2.49-42.57 5.73z"/>
	<path class="s0" d="m345.46 452.18c1.24 4.66 4.97 7.31 8.46 9.99 3.74 2.87 8.04 5.04 10.66 9.2 0.25 0.39 0.6 0.83 1.01 0.99 9.28 3.7 17.31 9.83 26.54 13.66 0.59 0.24 1.16 0.13 1.65-0.29-17.61-9.02-34.16-19.55-48.31-33.55z"/>
	<path class="s0" d="m186 217.52c1.98 0.7 2.35-1.07 3.21-2.08 3.13-3.7 5.61-7.99 9.38-11.07 4.16-3.42 7.63-7.53 11.69-11.01 3.15-2.71 3.23-6.12 2.91-9.64-0.34-3.68-0.56-7.36-0.04-11 0.41-2.88-0.57-4.81-2.94-6.23 0.6 5.53 1.25 11.06 1.79 16.59 0.42 4.25-0.9 7.59-4.29 10.61-8.03 7.18-15.95 14.55-21.7 23.83z"/>
	<path class="s0" d="m399.54 488.05c2.92 3.54 7.42 3.06 11.21 4.26 7.54 2.4 15.33 3.31 23.27 3.42 3.65 0.05 7.27 0.3 10.93-0.16 4.65-0.59 5.64 0.9 3.63 5.15-0.41 0.88-0.73 1.73-0.67 2.71 1.72-1.82 3.32-3.72 3.59-6.35 0.19-1.94-0.28-3.18-2.71-2.95-15.8 1.51-31.15-0.66-46.1-5.87-1.07-0.37-2.09-0.25-3.14-0.21z"/>
	<path class="s0" d="m300.64 297.09c0.25-4.02-3.77-5-5.48-7.64-4.07-6.34-10.41-11.14-12.66-18.73-0.09-0.33-0.26-0.71-0.52-0.9-5.59-4.16-7.37-11.19-12.06-16.04-0.79-0.81-1.44-1.53-2.64-1.39 7.75 10.88 14.42 22.5 22.77 32.99 3.3 4.15 6.5 8.31 10.59 11.71z"/>
	<path class="s0" d="m311.57 402.67c0.61 5.84 3.99 10.54 6.74 15.4 3.3 5.84 7.27 11.29 10.92 16.93 2.57 3.98 5.73 7.48 9.03 10.86 0.66 0.68 1.31 1.3 1.62 2.26 0.88 2.7 2.91 3.88 5.62 4.08-14-14.67-24.41-31.8-33.93-49.53z"/>
	<path class="s0" d="m128.7 345.67c-4.08-0.97-6.77 2.36-10.22 3.39-7.22 2.17-14 5.8-21.46 7.16-8.31 1.51-16.69 2.27-24.5-2.25 0.88 3.12 3.43 3.98 6.18 4.46 7.39 1.29 14.72 0.28 21.79-1.61 9.79-2.61 19.24-6.33 28.21-11.14z"/>
	<path class="s0" d="m227.62 542.59c-0.95-3.07-3.09-5.57-5.1-7.74-3.97-4.27-7.7-8.56-11.18-13.32-3.82-5.21-5.75-11.3-9.59-16.34-1.87-2.46-1.18-6.43-4.66-7.95-0.17 2.77 1.54 4.9 2.64 7.18 6.45 13.33 14.34 25.67 25.15 35.96 0.85 0.81 1.83 1.48 2.75 2.21z"/>
	<path class="s0" d="m289.65 230.22c0.08 0.94-0.12 2.04 0.3 2.78 3.51 6.18 7.06 12.34 10.73 18.41 2.55 4.23 5.28 8.33 7.65 12.71 2.44 4.52 6.19 8.28 11.41 9.98-12.55-11.33-18.96-26.88-27.94-40.67q-1.07-1.61-2.15-3.21z"/>
	<path class="s0" d="m175.47 106.01c-0.07-0.23-0.05-0.55-0.2-0.66-3.27-2.4-4.54-5.51-2.95-9.72 1.39-3.69 3.3-7.35 7.11-9.29 2.01-1.01 2.84-3.1 4.5-4.42 2.2-1.75 4.02-3.96 6.96-4.64 1.79-0.42 2.12-2.37 3.16-3.59-8.52 4.36-16.31 9.65-21.56 17.87-2.5 3.93-3.22 8.46-1.96 12.98 0.46 1.66 1.05 5.45 4.21 1.7 0.21-0.25 0.77 0.34 0.77 0.88l-0.05 0.01q-0.82-0.56 0.01-1.12z"/>
	<path class="s0" d="m253 528.94c-0.67-4.07-4.27-6.09-6.67-8.81-3.35-3.8-5.78-8.21-9.02-12.04-1.05-1.24-1.92-2.66-3.66-2.08-2.05 0.7-1.47 3.29-0.96 3.92 3.54 4.45 5.73 9.88 10.04 13.75 0.24 0.21 0.66 0.22 1 0.33-2.66-4.78-6.19-9.06-8.07-14.32 5.71 6.53 10.5 13.81 17.35 19.25z"/>
	<path class="s0" d="m319.89 274.23c-0.82 2.1 0.56 3.68 1.87 4.55 3.8 2.56 6.53 6.17 9.83 9.15 3.63 3.27 7.23 6.65 10.96 9.84 0.78 0.68 1.82 1.11 2.95 0.82q-12.81-12.18-25.61-24.36z"/>
	<path class="s0" d="m278.71 127.68c-0.58 2.1 1.3 2.26 2.41 2.86 4.07 2.18 7.99 4.56 11.27 7.84 3.46 3.46 5.74 6.94 3.86 12.55-0.89 2.66-2.94 5.19-2.57 8.29 6.68-5.84 6.6-15.88 0.1-21.75-4.53-4.09-10.2-6.31-15.07-9.8z"/>
	<path class="s0" d="m180.88 274.79c0.04-0.71 0.38-1.61 0.08-2.09-2.96-4.71-1.87-10.52-4.3-15.36-0.94-1.88-0.43-3.95-0.54-5.94-0.19-3.39 0.6-6.84-0.6-10.18-1.56 11.73-1.21 23.14 5.35 33.57z"/>
	<path class="s0" d="m246.1 181.42c-1.01 1.39 0.18 1.69 1.02 2.37 4.38 3.48 9.91 4.94 14.32 8.31 3.76 2.88 7.41 5.89 11.11 8.84-3.76-6-9.41-9.81-15.42-13.13-3.73-2.06-7.53-3.97-11.04-6.39z"/>
	<path class="s0" d="m256.05 566.85c-0.44-5-4.03-7.98-7.45-10.83-3.96-3.31-8.35-6.12-12.48-9.23-1.36-1.02-2.8-1.12-4.35-1.08 1.41 2.13 3.76 3.12 5.81 4.32 7.38 4.3 13.3 10.13 18.46 16.83z"/>
	<path class="s0" d="m323.81 313.5c-1.18-3.58-4.63-4.94-7.36-6.55-3.76-2.23-7.58-4.28-10.71-7.37-1.18-1.16-2.49-1.74-4.14-1.52 6.55 6.37 14.46 10.78 22.21 15.44z"/>
	<path class="s0" d="m151.53 333.1c-2.31-1.31-4 0.55-5.41 1.56-4.72 3.35-10.06 5.57-14.98 8.54-0.83 0.5-1.53 1.12-1.7 2.15 7.77-3.35 15.11-7.49 22.09-12.25z"/>
	<path class="s0" d="m367.88 526.31c-1.5-2.62-4.33-2.65-6.76-3.28-4.24-1.1-7.79-3.99-12.19-4.58 1.35 2.57 4.12 3.03 6.4 4.15 3.96 1.93 8.19 3.1 12.55 3.72z"/>
	<path class="s0" d="m169.31 320.14c-4.16 0.8-6.72 4.2-9.93 6.45-1.98 1.39-5.1 1.87-5.65 4.98 5.71-3.11 10.86-6.99 15.59-11.43z"/>
	<path class="s0" d="m390.02 656.16c-4.76 1.95-4.78 1.97-8.16-2.82-0.58-0.82-1.19-1.41-2.23-1.45 0.58 2.08 1.92 3.73 3.18 5.39 3.13 4.14 5.24 3.78 7.21-1.12z"/>
	<path class="s0" d="m113.32 339.8c4.42-1.67 8.43-3.84 10.47-8.45-3.53 2.76-7.58 4.88-10.47 8.45z"/>
	<path class="s0" d="m358.8 617.06c0-3.59-4.2-10.23-6.91-10.94q3.46 5.47 6.91 10.94z"/>
	<path class="s0" d="m277.81 332.64c0.16 4.96 3.89 7.69 6.81 10.92-1.64-4.04-4.09-7.56-6.81-10.92z"/>
	<path class="s0" d="m269.89 585.96c-0.49-3.81-0.74-7.8-5.96-8.13 1.85 2.81 3.03 6.11 5.96 8.13z"/>
	<path class="s0" d="m263.76 577.54c-0.1-3.56-4.39-9.56-6.94-9.68q3.47 4.83 6.94 9.68z"/>
	<path class="s0" d="m244.33 163.1c-3 2.89-0.71 6.47-1.31 9.67 1.18-2.67-0.08-5.67 1.19-8.33q0.06-0.67 0.12-1.33z"/>
	<path class="s0" d="m258.7 534.13c-0.03-2.86-1.85-3.66-4.29-3.74 1.23 1.48 2.62 2.77 4.29 3.74z"/>
	<path class="s0" d="m244.28 524.82c-0.26 2.28 0.55 3.77 3.01 4.03-0.78-1.51-1.74-2.89-3.01-4.03z"/>
	<path class="s0" d="m230.93 545.31c0.04-2.2-1.05-3.03-3.17-2.6 0.81 1.16 1.93 1.95 3.17 2.6z"/>
	<path class="s0" d="m333.79 582.5c0.05-1.36-0.4-2.39-1.87-2.72 0.21 1.19 0.96 2.01 1.87 2.72z"/>
	<path class="s0" d="m434.75 44.87c0.77 0.33 0.93-0.12 0.97-0.74-0.52 0-0.99 0.04-0.97 0.74z"/>
	<path class="s0" d="m153.77 331.54c-0.77 0-1.33 0.3-1.54 1.09 0.64-0.19 1.25-0.41 1.54-1.09z"/>
	<path class="s0" d="m539 164.43q-0.42 0.02-0.39 0.44 0.37-0.07 0.39-0.44z"/>
	<path class="s0" d="m175.47 106.01q-0.83 0.56-0.01 1.12 0.36 0 0.73 0-0.36-0.56-0.72-1.12z"/>
	<path class="s0" d="m340.2 524.86q0.11-0.24 0.23-0.48-0.13 0.23-0.25 0.45l0.02 0.02z"/>
	<path class="s1" d="m281.94 313.61l-96.63 18.88"/>
	<path class="s2" d="m194.68 333.1l74.41-13.17c9.34 8.71 29.79 46.45 38.85 64.24l-126.64-0.63z"/>
	<path fill-rule="evenodd" class="s3" d="m248.72 174.54l-41.11 7.43 1.55 8.61 41.12-7.43z"/>
	<path class="s4" d="m218.35 159.94c-21.98 13.41-14.04 10.42-34.84 18.95"/>
	<path class="s5" d="m248.84 174.31c-4.37-12.62-17.11-39.73-12.62-42.51 5.41-3.34 14.97-12.09 13.21-25.47-0.1-0.69-0.9-1-1.46-0.57-6.02 4.68-16.59 12.49-18.68 12.48-2.8-0.01-12.92-28.74-33-22.31-16.07 5.14-23.07 12.17-24.56 15.03"/>
	<path class="s3" d="m362.43 358.38l34.78-53.92-135.34-123.56-52.01 1.14-64.15 50.75 44.93 64.35-0.16 31.48 74.22-12.46 17.37-24.4z"/>
	<path class="s2" d="m285.09 200.37l16.88 28.76c130.57-33.23 195.93-154.07 214.12-215.36 0.79-2.67-1.28-5.29-4.07-5.13-104.18 6.1-194.4 129.64-226.93 191.73z"/>
	<path class="s2" d="m474.9 115.14c-36.69 69.92-125.27 107.37-163.19 123.83 109.7 41.13 220.53-66.4 266.18-132.06 2.03-2.93-0.39-6.79-3.93-6.36l-94.71 11.55c-1.86 0.23-3.48 1.38-4.35 3.04z"/>
	<path class="s2" d="m371.38 339.54l7.53-13.72c-44.45-40.94-72.51-79.48-85.64-99.94-2.34-3.64-7.49-4.19-10.47-1.05l-7.83 8.26q-0.54 0.57-0.93 1.25l-6.13 10.69c-1.57 2.73-2.21 5.91-1.77 9.02 7.5 52.23 24.54 62 105.24 85.49z"/>
	<path class="s3" d="m215.85 184.64l35.94-10.08-12.14-32.01-30.35 24.1-10.35 5.31z"/>
	<path class="s0" d="m178.61 228.53c1.91-9.5 22.2-42.17 28.03-57.22l2.86 34.76 28.92-48.83c-3.07 17.7 32.82 43.77 48 55.5l-18.05 19.5c-16.13 16.9-0.85 61.64 2.42 76.03l-51.94-13.08-18.98 18.1c6.29-45.91-23.65-72.88-21.26-84.76z"/>
	<path class="s0" d="m181.99 253.49c4.27 4.31 12.22 26.65 12.19 34.34-8.44 45.48-49.43 60.08-69.8 61.22l-10.89-14.28z"/>
	<path class="s3" d="m526.94 5.15l-4.81-5.09-231.23 216.5 4.81 5.08z"/>
	<path class="s2" d="m217.88 304.7l51.41 15.33-74.72 13.3z"/>
	<path class="s0" d="m88.89 414.17c10.93 4.68 24.26 4.65 36.44-1.18 12.19-5.83 20.59-16.2 23.8-27.65-10.92-4.68-24.25-4.65-36.43 1.18-12.19 5.83-20.59 16.2-23.81 27.65z"/>
	<path class="s0" d="m89.78 414.07c-0.69 8.04 2.17 16.63 8.52 23.24 6.36 6.62 14.83 9.82 22.9 9.45 0.69-8.04-2.17-16.63-8.53-23.24-6.35-6.61-14.83-9.82-22.89-9.45z"/>
	<path class="s0" d="m44.66 402.34c-3.79 7.13-10.85 12.79-19.78 14.9-8.92 2.11-17.78 0.2-24.36-4.48 3.79-7.13 10.85-12.79 19.77-14.9 8.93-2.11 17.79-0.21 24.37 4.48z"/>
	<path class="s0" d="m42.4 400.46c-11.73-2-22.91-9.26-29.99-20.76-7.08-11.51-8.51-24.77-5-36.14 11.73 2 22.92 9.26 29.99 20.76 7.08 11.51 8.51 24.77 5 36.14z"/>
	<path class="s2" d="m104.43 383.31c0.51-3.24-1.46-6.36-4.61-7.29l-43.81-12.91c-3.09-0.91-6.38 0.57-7.76 3.48l-37.98 80.54c-1.72 3.63 0.21 7.92 4.06 9.06l68 20.05c3.79 1.12 7.7-1.36 8.31-5.26z"/>
	<path class="s6" d="m93.25 381.69c8.6-10.46 19.94-33.38-3.5-41.36-23.43-7.99-29.18 17.84-29.12 31.75"/>
	<path fill-rule="evenodd" class="s3" d="m91.64 384.36c1.27 0.38 2.58-0.29 2.93-1.49 0.35-1.2-0.39-2.47-1.65-2.85-1.27-0.37-2.58 0.3-2.93 1.5-0.36 1.2 0.38 2.47 1.65 2.84z"/>
	<path fill-rule="evenodd" class="s3" d="m59.45 374.87c1.2 0.35 2.46-0.33 2.81-1.53 0.35-1.2-0.33-2.46-1.53-2.81-1.2-0.36-2.46 0.33-2.81 1.53-0.35 1.2 0.33 2.45 1.53 2.81z"/>
	<path class="s2" d="m375.71 401.67c-10.63 2.59-22.71 0.54-32.88-6.59-10.17-7.14-16.21-17.81-17.39-28.68 10.62-2.59 22.71-0.55 32.88 6.58 10.17 7.14 16.21 17.81 17.39 28.69z"/>
	<path class="s7" d="m376.28 402.66l-54.5-38"/>
	<path class="s2" d="m419.94 396.28c10.93-0.04 22.16-4.92 30.31-14.28 8.17-9.36 11.47-21.17 10.01-32.01-10.93 0.04-22.16 4.93-30.31 14.28-8.17 9.36-11.47 21.17-10.01 32.01z"/>
	<path class="s7" d="m421.16 395.32l43.93-49.85"/>
	<path class="s2" d="m420.64 395.88c2.36 7.04 7.9 13.24 15.67 16.5 7.78 3.27 16.1 2.89 22.78-0.37-2.35-7.03-7.9-13.24-15.67-16.5-7.78-3.27-16.1-2.88-22.78 0.37z"/>
	<path class="s2" d="m378.3 402.44c-0.6 7.39-4.5 14.75-11.26 19.78-6.77 5.03-14.93 6.65-22.2 5.1 0.6-7.4 4.5-14.75 11.26-19.78 6.77-5.04 14.94-6.66 22.2-5.1z"/>
	<path class="s0" d="m419.47 369.25c-0.35-1.33-1.62-2.2-2.98-2.03l-43.37 5.27c-1.33 0.16-2.35 1.28-2.4 2.62l-2.69 81.2c-0.06 1.68 1.4 3 3.06 2.8l66.24-8.06c1.64-0.19 2.73-1.79 2.31-3.39z"/>
	<path class="s8" d="m411.01 373.95c3.22-11.04 4.38-32.69-16.76-31-21.13 1.69-16.91 23.72-12.15 34.51"/>
	<path fill-rule="evenodd" class="s3" d="m410.59 376.78c1.08-0.13 1.84-1.16 1.7-2.3-0.14-1.14-1.12-1.96-2.2-1.83-1.08 0.13-1.84 1.16-1.7 2.3 0.14 1.14 1.13 1.96 2.2 1.83z"/>
	<path fill-rule="evenodd" class="s3" d="m382.15 380.24c1.08-0.13 1.84-1.16 1.7-2.3-0.14-1.14-1.12-1.96-2.2-1.83-1.08 0.14-1.84 1.16-1.7 2.31 0.14 1.14 1.12 1.95 2.2 1.82z"/>
	<path class="s9" d="m440.41 433.66l-81.56 11.54"/>
</svg>