<svg width="100" height="100" viewBox="0 0 100 100" fill="none" xmlns="http://www.w3.org/2000/svg">
<path d="M49.8278 49.8572C56.2032 51.1242 62.2055 55.259 65.8971 61.6529C69.5891 68.0477 70.1686 75.3146 68.0771 81.4698C61.7017 80.2029 55.6989 76.0673 52.0073 69.6733C48.3155 63.2788 47.7366 56.0123 49.8278 49.8572Z" fill="#FCCFD8"/>
<path d="M49.8278 49.8572C56.2032 51.1242 62.2055 55.259 65.8971 61.6529C69.5891 68.0477 70.1686 75.3146 68.0771 81.4698C61.7017 80.2029 55.6989 76.0673 52.0073 69.6733C48.3155 63.2788 47.7366 56.0123 49.8278 49.8572Z" fill="#FCCFD8"/>
<path d="M49.8278 49.8572C56.2032 51.1242 62.2055 55.259 65.8971 61.6529C69.5891 68.0477 70.1686 75.3146 68.0771 81.4698C61.7017 80.2029 55.6989 76.0673 52.0073 69.6733C48.3155 63.2788 47.7366 56.0123 49.8278 49.8572Z" fill="#FCCFD8"/>
<path d="M49.8278 49.8572C56.2032 51.1242 62.2055 55.259 65.8971 61.6529C69.5891 68.0477 70.1686 75.3146 68.0771 81.4698C61.7017 80.2029 55.6989 76.0673 52.0073 69.6733C48.3155 63.2788 47.7366 56.0123 49.8278 49.8572Z" fill="#FCCFD8"/>
<path d="M49.8278 49.8572C56.2032 51.1242 62.2055 55.259 65.8971 61.6529C69.5891 68.0477 70.1686 75.3146 68.0771 81.4698C61.7017 80.2029 55.6989 76.0673 52.0073 69.6733C48.3155 63.2788 47.7366 56.0123 49.8278 49.8572Z" fill="#FCCFD8"/>
<path d="M49.8428 49.8439C51.1106 43.4701 55.2449 37.4694 61.6374 33.7787C68.0292 30.0884 75.2924 29.5077 81.4458 31.5957C80.1778 37.9694 76.0436 43.9702 69.6512 47.6609C63.2595 51.3512 55.9961 51.9318 49.8428 49.8439Z" fill="#FCCFD8"/>
<path d="M49.8428 49.8439C51.1106 43.4701 55.2449 37.4694 61.6374 33.7787C68.0292 30.0884 75.2924 29.5077 81.4458 31.5957C80.1778 37.9694 76.0436 43.9702 69.6512 47.6609C63.2595 51.3512 55.9961 51.9318 49.8428 49.8439Z" fill="#FCCFD8"/>
<path d="M49.8428 49.8439C51.1106 43.4701 55.2449 37.4694 61.6374 33.7787C68.0292 30.0884 75.2924 29.5077 81.4458 31.5957C80.1778 37.9694 76.0436 43.9702 69.6512 47.6609C63.2595 51.3512 55.9961 51.9318 49.8428 49.8439Z" fill="#FCCFD8"/>
<path d="M49.8428 49.8439C51.1106 43.4701 55.2449 37.4694 61.6374 33.7787C68.0292 30.0884 75.2924 29.5077 81.4458 31.5957C80.1778 37.9694 76.0436 43.9702 69.6512 47.6609C63.2595 51.3512 55.9961 51.9318 49.8428 49.8439Z" fill="#FCCFD8"/>
<path d="M49.8428 49.8439C51.1106 43.4701 55.2449 37.4694 61.6374 33.7787C68.0292 30.0884 75.2924 29.5077 81.4458 31.5957C80.1778 37.9694 76.0436 43.9702 69.6512 47.6609C63.2595 51.3512 55.9961 51.9318 49.8428 49.8439Z" fill="#FCCFD8"/>
<path d="M31.5877 18.2569C37.9642 19.5232 43.9681 23.6592 47.6602 30.0541C51.351 36.4471 51.931 43.7117 49.8416 49.8657C43.4655 48.5993 37.4625 44.4633 33.7705 38.0688C30.0795 31.6759 29.4984 24.411 31.5877 18.2569Z" fill="#FCCFD8"/>
<path d="M31.5877 18.2569C37.9642 19.5232 43.9681 23.6592 47.6602 30.0541C51.351 36.4471 51.931 43.7117 49.8416 49.8657C43.4655 48.5993 37.4625 44.4633 33.7705 38.0688C30.0795 31.6759 29.4984 24.411 31.5877 18.2569Z" fill="#FCCFD8"/>
<path d="M31.5877 18.2569C37.9642 19.5232 43.9681 23.6592 47.6602 30.0541C51.351 36.4471 51.931 43.7117 49.8416 49.8657C43.4655 48.5993 37.4625 44.4633 33.7705 38.0688C30.0795 31.6759 29.4984 24.411 31.5877 18.2569Z" fill="#FCCFD8"/>
<path d="M31.5877 18.2569C37.9642 19.5232 43.9681 23.6592 47.6602 30.0541C51.351 36.4471 51.931 43.7117 49.8416 49.8657C43.4655 48.5993 37.4625 44.4633 33.7705 38.0688C30.0795 31.6759 29.4984 24.411 31.5877 18.2569Z" fill="#FCCFD8"/>
<path d="M31.5877 18.2569C37.9642 19.5232 43.9681 23.6592 47.6602 30.0541C51.351 36.4471 51.931 43.7117 49.8416 49.8657C43.4655 48.5993 37.4625 44.4633 33.7705 38.0688C30.0795 31.6759 29.4984 24.411 31.5877 18.2569Z" fill="#FCCFD8"/>
<path d="M18.2437 68.0915C19.5115 61.7175 23.6464 55.7166 30.0391 52.0257C36.4309 48.3354 43.6941 47.7547 49.8475 49.8427C48.5796 56.2166 44.4446 62.2177 38.0521 65.9085C31.6603 69.5986 24.397 70.1795 18.2437 68.0915Z" fill="#FCCFD8"/>
<path d="M18.2437 68.0915C19.5115 61.7175 23.6464 55.7166 30.0391 52.0257C36.4309 48.3354 43.6941 47.7547 49.8475 49.8427C48.5796 56.2166 44.4446 62.2177 38.0521 65.9085C31.6603 69.5986 24.397 70.1795 18.2437 68.0915Z" fill="#FCCFD8"/>
<path d="M18.2437 68.0915C19.5115 61.7175 23.6464 55.7166 30.0391 52.0257C36.4309 48.3354 43.6941 47.7547 49.8475 49.8427C48.5796 56.2166 44.4446 62.2177 38.0521 65.9085C31.6603 69.5986 24.397 70.1795 18.2437 68.0915Z" fill="#FCCFD8"/>
<path d="M18.2437 68.0915C19.5115 61.7175 23.6464 55.7166 30.0391 52.0257C36.4309 48.3354 43.6941 47.7547 49.8475 49.8427C48.5796 56.2166 44.4446 62.2177 38.0521 65.9085C31.6603 69.5986 24.397 70.1795 18.2437 68.0915Z" fill="#FCCFD8"/>
<path d="M18.2437 68.0915C19.5115 61.7175 23.6464 55.7166 30.0391 52.0257C36.4309 48.3354 43.6941 47.7547 49.8475 49.8427C48.5796 56.2166 44.4446 62.2177 38.0521 65.9085C31.6603 69.5986 24.397 70.1795 18.2437 68.0915Z" fill="#FCCFD8"/>
<path d="M49.827 49.857C56.2029 51.1235 62.2065 55.2581 65.8984 61.6525C69.5905 68.0474 70.1691 75.3147 68.0776 81.4699C61.702 80.2031 55.6995 76.0675 52.0078 69.6734C48.3159 63.2788 47.7357 56.0121 49.827 49.857Z" fill="#FCCFD8"/>
<path d="M49.827 49.857C56.2029 51.1235 62.2065 55.2581 65.8984 61.6525C69.5905 68.0474 70.1691 75.3147 68.0776 81.4699C61.702 80.2031 55.6995 76.0675 52.0078 69.6734C48.3159 63.2788 47.7357 56.0121 49.827 49.857Z" fill="#FCCFD8"/>
<path d="M49.827 49.857C56.2029 51.1235 62.2065 55.2581 65.8984 61.6525C69.5905 68.0474 70.1691 75.3147 68.0776 81.4699C61.702 80.2031 55.6995 76.0675 52.0078 69.6734C48.3159 63.2788 47.7357 56.0121 49.827 49.857Z" fill="#FCCFD8"/>
<path d="M49.827 49.857C56.2029 51.1235 62.2065 55.2581 65.8984 61.6525C69.5905 68.0474 70.1691 75.3147 68.0776 81.4699C61.702 80.2031 55.6995 76.0675 52.0078 69.6734C48.3159 63.2788 47.7357 56.0121 49.827 49.857Z" fill="#FCCFD8"/>
<path d="M49.827 49.857C56.2029 51.1235 62.2065 55.2581 65.8984 61.6525C69.5905 68.0474 70.1691 75.3147 68.0776 81.4699C61.702 80.2031 55.6995 76.0675 52.0078 69.6734C48.3159 63.2788 47.7357 56.0121 49.827 49.857Z" fill="#FCCFD8"/>
<path d="M49.8408 49.8445C51.1086 43.4704 55.243 37.4688 61.6358 33.7779C68.0273 30.0879 75.2902 29.5077 81.4434 31.5954C80.1755 37.9692 76.0411 43.9699 69.6487 47.6607C63.2573 51.3508 55.994 51.9321 49.8408 49.8445Z" fill="#FCCFD8"/>
<path d="M49.8408 49.8445C51.1086 43.4704 55.243 37.4688 61.6358 33.7779C68.0273 30.0879 75.2902 29.5077 81.4434 31.5954C80.1755 37.9692 76.0411 43.9699 69.6487 47.6607C63.2573 51.3508 55.994 51.9321 49.8408 49.8445Z" fill="#FCCFD8"/>
<path d="M49.8408 49.8445C51.1086 43.4704 55.243 37.4688 61.6358 33.7779C68.0273 30.0879 75.2902 29.5077 81.4434 31.5954C80.1755 37.9692 76.0411 43.9699 69.6487 47.6607C63.2573 51.3508 55.994 51.9321 49.8408 49.8445Z" fill="#FCCFD8"/>
<path d="M49.8408 49.8445C51.1086 43.4704 55.243 37.4688 61.6358 33.7779C68.0273 30.0879 75.2902 29.5077 81.4434 31.5954C80.1755 37.9692 76.0411 43.9699 69.6487 47.6607C63.2573 51.3508 55.994 51.9321 49.8408 49.8445Z" fill="#FCCFD8"/>
<path d="M49.8408 49.8445C51.1086 43.4704 55.243 37.4688 61.6358 33.7779C68.0273 30.0879 75.2902 29.5077 81.4434 31.5954C80.1755 37.9692 76.0411 43.9699 69.6487 47.6607C63.2573 51.3508 55.994 51.9321 49.8408 49.8445Z" fill="#FCCFD8"/>
<path d="M31.5872 18.2574C37.9632 19.5239 43.9665 23.6598 47.6583 30.0543C51.3493 36.4472 51.9292 43.7117 49.8398 49.8658C43.464 48.5991 37.4613 44.4628 33.7695 38.0685C30.0787 31.6757 29.4981 24.4113 31.5872 18.2574Z" fill="#FCCFD8"/>
<path d="M31.5872 18.2574C37.9632 19.5239 43.9665 23.6598 47.6583 30.0543C51.3493 36.4472 51.9292 43.7117 49.8398 49.8658C43.464 48.5991 37.4613 44.4628 33.7695 38.0685C30.0787 31.6757 29.4981 24.4113 31.5872 18.2574Z" fill="#FCCFD8"/>
<path d="M31.5872 18.2574C37.9632 19.5239 43.9665 23.6598 47.6583 30.0543C51.3493 36.4472 51.9292 43.7117 49.8398 49.8658C43.464 48.5991 37.4613 44.4628 33.7695 38.0685C30.0787 31.6757 29.4981 24.4113 31.5872 18.2574Z" fill="#FCCFD8"/>
<path d="M31.5872 18.2574C37.9632 19.5239 43.9665 23.6598 47.6583 30.0543C51.3493 36.4472 51.9292 43.7117 49.8398 49.8658C43.464 48.5991 37.4613 44.4628 33.7695 38.0685C30.0787 31.6757 29.4981 24.4113 31.5872 18.2574Z" fill="#FCCFD8"/>
<path d="M31.5872 18.2574C37.9632 19.5239 43.9665 23.6598 47.6583 30.0543C51.3493 36.4472 51.9292 43.7117 49.8398 49.8658C43.464 48.5991 37.4613 44.4628 33.7695 38.0685C30.0787 31.6757 29.4981 24.4113 31.5872 18.2574Z" fill="#FCCFD8"/>
<path d="M18.2432 68.0923C19.5108 61.7181 23.6452 55.7167 30.0381 52.0257C36.4297 48.3356 43.6925 47.7555 49.8457 49.8432C48.5777 56.2169 44.4435 62.2178 38.0511 65.9085C31.6596 69.5986 24.3963 70.1799 18.2432 68.0923Z" fill="#FCCFD8"/>
<path d="M18.2432 68.0923C19.5108 61.7181 23.6452 55.7167 30.0381 52.0257C36.4297 48.3356 43.6925 47.7555 49.8457 49.8432C48.5777 56.2169 44.4435 62.2178 38.0511 65.9085C31.6596 69.5986 24.3963 70.1799 18.2432 68.0923Z" fill="#FCCFD8"/>
<path d="M18.2432 68.0923C19.5108 61.7181 23.6452 55.7167 30.0381 52.0257C36.4297 48.3356 43.6925 47.7555 49.8457 49.8432C48.5777 56.2169 44.4435 62.2178 38.0511 65.9085C31.6596 69.5986 24.3963 70.1799 18.2432 68.0923Z" fill="#FCCFD8"/>
<path d="M18.2432 68.0923C19.5108 61.7181 23.6452 55.7167 30.0381 52.0257C36.4297 48.3356 43.6925 47.7555 49.8457 49.8432C48.5777 56.2169 44.4435 62.2178 38.0511 65.9085C31.6596 69.5986 24.3963 70.1799 18.2432 68.0923Z" fill="#FCCFD8"/>
<path d="M18.2432 68.0923C19.5108 61.7181 23.6452 55.7167 30.0381 52.0257C36.4297 48.3356 43.6925 47.7555 49.8457 49.8432C48.5777 56.2169 44.4435 62.2178 38.0511 65.9085C31.6596 69.5986 24.3963 70.1799 18.2432 68.0923Z" fill="#FCCFD8"/>
<path d="M49.825 49.857C56.201 51.1234 62.2045 55.2581 65.8965 61.6525C69.5887 68.0476 70.1679 75.3154 68.0761 81.4708C61.7003 80.2041 55.6976 76.0677 52.0059 69.6734C48.314 63.2788 47.7338 56.0121 49.825 49.857Z" fill="#FCCFD8"/>
<path d="M49.825 49.857C56.201 51.1234 62.2045 55.2581 65.8965 61.6525C69.5887 68.0476 70.1679 75.3154 68.0761 81.4708C61.7003 80.2041 55.6976 76.0677 52.0059 69.6734C48.314 63.2788 47.7338 56.0121 49.825 49.857Z" fill="#FCCFD8"/>
<path d="M49.825 49.857C56.201 51.1234 62.2045 55.2581 65.8965 61.6525C69.5887 68.0476 70.1679 75.3154 68.0761 81.4708C61.7003 80.2041 55.6976 76.0677 52.0059 69.6734C48.314 63.2788 47.7338 56.0121 49.825 49.857Z" fill="#FCCFD8"/>
<path d="M49.825 49.857C56.201 51.1234 62.2045 55.2581 65.8965 61.6525C69.5887 68.0476 70.1679 75.3154 68.0761 81.4708C61.7003 80.2041 55.6976 76.0677 52.0059 69.6734C48.314 63.2788 47.7338 56.0121 49.825 49.857Z" fill="#FCCFD8"/>
<path d="M49.825 49.857C56.201 51.1234 62.2045 55.2581 65.8965 61.6525C69.5887 68.0476 70.1679 75.3154 68.0761 81.4708C61.7003 80.2041 55.6976 76.0677 52.0059 69.6734C48.314 63.2788 47.7338 56.0121 49.825 49.857Z" fill="#FCCFD8"/>
<path d="M49.8408 49.8445C51.1086 43.4704 55.243 37.4688 61.6358 33.7779C68.0273 30.0879 75.2902 29.5077 81.4434 31.5954C80.1755 37.9692 76.0411 43.9699 69.6487 47.6607C63.2573 51.3508 55.994 51.9321 49.8408 49.8445Z" fill="#FCCFD8"/>
<path d="M49.8408 49.8445C51.1086 43.4704 55.243 37.4688 61.6358 33.7779C68.0273 30.0879 75.2902 29.5077 81.4434 31.5954C80.1755 37.9692 76.0411 43.9699 69.6487 47.6607C63.2573 51.3508 55.994 51.9321 49.8408 49.8445Z" fill="#FCCFD8"/>
<path d="M49.8408 49.8445C51.1086 43.4704 55.243 37.4688 61.6358 33.7779C68.0273 30.0879 75.2902 29.5077 81.4434 31.5954C80.1755 37.9692 76.0411 43.9699 69.6487 47.6607C63.2573 51.3508 55.994 51.9321 49.8408 49.8445Z" fill="#FCCFD8"/>
<path d="M49.8408 49.8445C51.1086 43.4704 55.243 37.4688 61.6358 33.7779C68.0273 30.0879 75.2902 29.5077 81.4434 31.5954C80.1755 37.9692 76.0411 43.9699 69.6487 47.6607C63.2573 51.3508 55.994 51.9321 49.8408 49.8445Z" fill="#FCCFD8"/>
<path d="M49.8408 49.8445C51.1086 43.4704 55.243 37.4688 61.6358 33.7779C68.0273 30.0879 75.2902 29.5077 81.4434 31.5954C80.1755 37.9692 76.0411 43.9699 69.6487 47.6607C63.2573 51.3508 55.994 51.9321 49.8408 49.8445Z" fill="#FCCFD8"/>
<path d="M31.5872 18.2574C37.9632 19.5239 43.9665 23.6598 47.6583 30.0543C51.3493 36.4472 51.9292 43.7117 49.8398 49.8658C43.464 48.5991 37.4613 44.4628 33.7695 38.0685C30.0787 31.6757 29.4981 24.4113 31.5872 18.2574Z" fill="#FCCFD8"/>
<path d="M31.5872 18.2574C37.9632 19.5239 43.9665 23.6598 47.6583 30.0543C51.3493 36.4472 51.9292 43.7117 49.8398 49.8658C43.464 48.5991 37.4613 44.4628 33.7695 38.0685C30.0787 31.6757 29.4981 24.4113 31.5872 18.2574Z" fill="#FCCFD8"/>
<path d="M31.5872 18.2574C37.9632 19.5239 43.9665 23.6598 47.6583 30.0543C51.3493 36.4472 51.9292 43.7117 49.8398 49.8658C43.464 48.5991 37.4613 44.4628 33.7695 38.0685C30.0787 31.6757 29.4981 24.4113 31.5872 18.2574Z" fill="#FCCFD8"/>
<path d="M31.5872 18.2574C37.9632 19.5239 43.9665 23.6598 47.6583 30.0543C51.3493 36.4472 51.9292 43.7117 49.8398 49.8658C43.464 48.5991 37.4613 44.4628 33.7695 38.0685C30.0787 31.6757 29.4981 24.4113 31.5872 18.2574Z" fill="#FCCFD8"/>
<path d="M31.5872 18.2574C37.9632 19.5239 43.9665 23.6598 47.6583 30.0543C51.3493 36.4472 51.9292 43.7117 49.8398 49.8658C43.464 48.5991 37.4613 44.4628 33.7695 38.0685C30.0787 31.6757 29.4981 24.4113 31.5872 18.2574Z" fill="#FCCFD8"/>
<path d="M18.2432 68.0923C19.5108 61.7181 23.6452 55.7167 30.0381 52.0257C36.4297 48.3356 43.6925 47.7555 49.8457 49.8432C48.5777 56.2169 44.4435 62.2178 38.0511 65.9085C31.6596 69.5986 24.3963 70.1799 18.2432 68.0923Z" fill="#FCCFD8"/>
<path d="M18.2432 68.0923C19.5108 61.7181 23.6452 55.7167 30.0381 52.0257C36.4297 48.3356 43.6925 47.7555 49.8457 49.8432C48.5777 56.2169 44.4435 62.2178 38.0511 65.9085C31.6596 69.5986 24.3963 70.1799 18.2432 68.0923Z" fill="#FCCFD8"/>
<path d="M18.2432 68.0923C19.5108 61.7181 23.6452 55.7167 30.0381 52.0257C36.4297 48.3356 43.6925 47.7555 49.8457 49.8432C48.5777 56.2169 44.4435 62.2178 38.0511 65.9085C31.6596 69.5986 24.3963 70.1799 18.2432 68.0923Z" fill="#FCCFD8"/>
<path d="M18.2432 68.0923C19.5108 61.7181 23.6452 55.7167 30.0381 52.0257C36.4297 48.3356 43.6925 47.7555 49.8457 49.8432C48.5777 56.2169 44.4435 62.2178 38.0511 65.9085C31.6596 69.5986 24.3963 70.1799 18.2432 68.0923Z" fill="#FCCFD8"/>
<path d="M18.2432 68.0923C19.5108 61.7181 23.6452 55.7167 30.0381 52.0257C36.4297 48.3356 43.6925 47.7555 49.8457 49.8432C48.5777 56.2169 44.4435 62.2178 38.0511 65.9085C31.6596 69.5986 24.3963 70.1799 18.2432 68.0923Z" fill="#FCCFD8"/>
<path d="M49.8332 49.8572C56.2084 51.1243 62.211 55.2591 65.9024 61.6529C69.5946 68.0481 70.1741 75.3157 68.0821 81.4712C61.707 80.2041 55.7051 76.0686 52.0137 69.675C48.3215 63.28 47.7414 56.0126 49.8332 49.8572Z" fill="#FCCFD8"/>
<path d="M49.8332 49.8572C56.2084 51.1243 62.211 55.2591 65.9024 61.6529C69.5946 68.0481 70.1741 75.3157 68.0821 81.4712C61.707 80.2041 55.7051 76.0686 52.0137 69.675C48.3215 63.28 47.7414 56.0126 49.8332 49.8572Z" fill="#FCCFD8"/>
<path d="M49.8332 49.8572C56.2084 51.1243 62.211 55.2591 65.9024 61.6529C69.5946 68.0481 70.1741 75.3157 68.0821 81.4712C61.707 80.2041 55.7051 76.0686 52.0137 69.675C48.3215 63.28 47.7414 56.0126 49.8332 49.8572Z" fill="#FCCFD8"/>
<path d="M49.8332 49.8572C56.2084 51.1243 62.211 55.2591 65.9024 61.6529C69.5946 68.0481 70.1741 75.3157 68.0821 81.4712C61.707 80.2041 55.7051 76.0686 52.0137 69.675C48.3215 63.28 47.7414 56.0126 49.8332 49.8572Z" fill="#FCCFD8"/>
<path d="M49.8332 49.8572C56.2084 51.1243 62.211 55.2591 65.9024 61.6529C69.5946 68.0481 70.1741 75.3157 68.0821 81.4712C61.707 80.2041 55.7051 76.0686 52.0137 69.675C48.3215 63.28 47.7414 56.0126 49.8332 49.8572Z" fill="#FCCFD8"/>
<path d="M49.8472 49.8414C51.115 43.4673 55.2499 37.4665 61.6426 33.7756C68.0343 30.0854 75.2969 29.5053 81.4502 31.5931C80.1822 37.9667 76.0473 43.9668 69.6551 47.6575C63.2635 51.3477 56.0004 51.9291 49.8472 49.8414Z" fill="#FCCFD8"/>
<path d="M49.8472 49.8414C51.115 43.4673 55.2499 37.4665 61.6426 33.7756C68.0343 30.0854 75.2969 29.5053 81.4502 31.5931C80.1822 37.9667 76.0473 43.9668 69.6551 47.6575C63.2635 51.3477 56.0004 51.9291 49.8472 49.8414Z" fill="#FCCFD8"/>
<path d="M49.8472 49.8414C51.115 43.4673 55.2499 37.4665 61.6426 33.7756C68.0343 30.0854 75.2969 29.5053 81.4502 31.5931C80.1822 37.9667 76.0473 43.9668 69.6551 47.6575C63.2635 51.3477 56.0004 51.9291 49.8472 49.8414Z" fill="#FCCFD8"/>
<path d="M49.8472 49.8414C51.115 43.4673 55.2499 37.4665 61.6426 33.7756C68.0343 30.0854 75.2969 29.5053 81.4502 31.5931C80.1822 37.9667 76.0473 43.9668 69.6551 47.6575C63.2635 51.3477 56.0004 51.9291 49.8472 49.8414Z" fill="#FCCFD8"/>
<path d="M49.8472 49.8414C51.115 43.4673 55.2499 37.4665 61.6426 33.7756C68.0343 30.0854 75.2969 29.5053 81.4502 31.5931C80.1822 37.9667 76.0473 43.9668 69.6551 47.6575C63.2635 51.3477 56.0004 51.9291 49.8472 49.8414Z" fill="#FCCFD8"/>
<path d="M31.5911 18.2583C37.9673 19.5247 43.9706 23.6593 47.6626 30.0539C51.3535 36.4466 51.934 43.711 49.8449 49.865C43.4687 48.5985 37.4649 44.4633 33.7729 38.0686C30.0823 31.6761 29.5024 24.4121 31.5911 18.2583Z" fill="#FCCFD8"/>
<path d="M31.5911 18.2583C37.9673 19.5247 43.9706 23.6593 47.6626 30.0539C51.3535 36.4466 51.934 43.711 49.8449 49.865C43.4687 48.5985 37.4649 44.4633 33.7729 38.0686C30.0823 31.6761 29.5024 24.4121 31.5911 18.2583Z" fill="#FCCFD8"/>
<path d="M31.5911 18.2583C37.9673 19.5247 43.9706 23.6593 47.6626 30.0539C51.3535 36.4466 51.934 43.711 49.8449 49.865C43.4687 48.5985 37.4649 44.4633 33.7729 38.0686C30.0823 31.6761 29.5024 24.4121 31.5911 18.2583Z" fill="#FCCFD8"/>
<path d="M31.5911 18.2583C37.9673 19.5247 43.9706 23.6593 47.6626 30.0539C51.3535 36.4466 51.934 43.711 49.8449 49.865C43.4687 48.5985 37.4649 44.4633 33.7729 38.0686C30.0823 31.6761 29.5024 24.4121 31.5911 18.2583Z" fill="#FCCFD8"/>
<path d="M31.5911 18.2583C37.9673 19.5247 43.9706 23.6593 47.6626 30.0539C51.3535 36.4466 51.934 43.711 49.8449 49.865C43.4687 48.5985 37.4649 44.4633 33.7729 38.0686C30.0823 31.6761 29.5024 24.4121 31.5911 18.2583Z" fill="#FCCFD8"/>
<path d="M18.2495 68.0839C19.5173 61.7099 23.6523 55.709 30.045 52.0182C36.4369 48.328 43.7 47.747 49.8534 49.8352C48.5855 56.209 44.4505 62.2102 38.0579 65.9009C31.6662 69.5911 24.4028 70.1718 18.2495 68.0839Z" fill="#FCCFD8"/>
<path d="M18.2495 68.0839C19.5173 61.7099 23.6523 55.709 30.045 52.0182C36.4369 48.328 43.7 47.747 49.8534 49.8352C48.5855 56.209 44.4505 62.2102 38.0579 65.9009C31.6662 69.5911 24.4028 70.1718 18.2495 68.0839Z" fill="#FCCFD8"/>
<path d="M18.2495 68.0839C19.5173 61.7099 23.6523 55.709 30.045 52.0182C36.4369 48.328 43.7 47.747 49.8534 49.8352C48.5855 56.209 44.4505 62.2102 38.0579 65.9009C31.6662 69.5911 24.4028 70.1718 18.2495 68.0839Z" fill="#FCCFD8"/>
<path d="M18.2495 68.0839C19.5173 61.7099 23.6523 55.709 30.045 52.0182C36.4369 48.328 43.7 47.747 49.8534 49.8352C48.5855 56.209 44.4505 62.2102 38.0579 65.9009C31.6662 69.5911 24.4028 70.1718 18.2495 68.0839Z" fill="#FCCFD8"/>
<path d="M18.2495 68.0839C19.5173 61.7099 23.6523 55.709 30.045 52.0182C36.4369 48.328 43.7 47.747 49.8534 49.8352C48.5855 56.209 44.4505 62.2102 38.0579 65.9009C31.6662 69.5911 24.4028 70.1718 18.2495 68.0839Z" fill="#FCCFD8"/>
</svg>
