<svg version="1.2" xmlns="http://www.w3.org/2000/svg" viewBox="0 0 570 525" width="570" height="525">
	<style>
		.s0 { fill: #546224 } 
		.s1 { fill: none;stroke: #9f9a44;stroke-width: 6.4 } 
		.s2 { fill: none;stroke: #bbb44f;stroke-width: 6.4 } 
		.s3 { fill: #fccfd8 } 
		.s4 { fill: none;stroke: #546224;stroke-linecap: round;stroke-width: 12.1 } 
		.s5 { fill: #c8c260 } 
		.s6 { fill: none;stroke: #9f9a44;stroke-width: 17.1 } 
	</style>
	<path class="s0" d="m414.84 234.1c40.95-12.49 77.56-43.54 97.55-87.87 19.99-44.32 19.02-92.32 1.27-131.28-40.94 12.49-77.56 43.54-97.54 87.87-19.99 44.33-19.02 92.32-1.28 131.28z"/>
	<path class="s1" d="m414.88 238.62l107.58-236.82"/>
	<path class="s0" d="m255.2 304.34c-36.86 21.7-84.45 27.68-130.59 12.48-46.19-15.22-80.92-48.38-97.64-87.79 36.86-21.7 84.45-27.68 130.59-12.48 46.19 15.23 80.92 48.38 97.64 87.79z"/>
	<path class="s2" d="m249.14 303.5l-247.48-80.06"/>
	<path class="s0" d="m252.01 304.37c6.13 28.4-0.15 60.36-19.79 86.87-19.66 26.53-48.44 41.86-77.41 44.24-6.13-28.39 0.15-60.35 19.79-86.86 19.66-26.54 48.44-41.86 77.41-44.25z"/>
	<path class="s0" d="m407.64 241.85c16.78 23.7 44.59 40.67 77.4 44.1 32.85 3.44 63.59-7.41 84.93-27.16-16.79-23.71-44.6-40.67-77.41-44.11-32.84-3.44-63.59 7.42-84.92 27.17z"/>
	<path class="s3" d="m202.78 212.38c-1.5-5.15 1.05-10.62 5.96-12.78l156.54-68.86c4.83-2.12 10.48-0.41 13.31 4.03l171.25 267.99c3.53 5.53 1.3 12.9-4.7 15.54l-239.11 105.18c-5.91 2.6-12.75-0.6-14.56-6.8z"/>
	<path class="s4" d="m240.62 211.28c-32.89-30.72-80.03-101.3-5.49-137.82 74.54-36.52 104.29 46.06 109.85 91.91"/>
	<path fill-rule="evenodd" class="s5" d="m247.69 220.02c-3.89 1.72-8.5-0.23-10.31-4.35-1.82-4.12-0.14-8.84 3.76-10.55 3.89-1.71 8.5 0.23 10.31 4.36 1.82 4.12 0.13 8.83-3.76 10.54z"/>
	<path fill-rule="evenodd" class="s5" d="m350.38 174.86c-3.9 1.71-8.51-0.24-10.32-4.36-1.81-4.12-0.13-8.84 3.76-10.55 3.89-1.71 8.5 0.24 10.32 4.36 1.81 4.12 0.13 8.83-3.76 10.55z"/>
	<path class="s6" d="m275.5 466l248.5-107.5"/>
</svg>