<svg version="1.2" xmlns="http://www.w3.org/2000/svg" viewBox="0 0 470 545" width="470" height="545">
	<style>
		.s0 { fill: #546224 } 
		.s1 { fill: none;stroke: #9f9a44;stroke-width: 7.4 } 
		.s2 { fill: none;stroke: #546224;stroke-width: 7.4 } 
		.s3 { fill: #c8c260 } 
		.s4 { fill: #fccfd8 } 
		.s5 { fill: none;stroke: #546224;stroke-linecap: round;stroke-width: 13.9 } 
		.s6 { fill: none;stroke: #9f9a44;stroke-width: 19.7 } 
	</style>
	<path class="s0" d="m201.62 285.25c45.49 18.97 100.76 18.29 151.02-6.36 50.26-24.66 84.62-67.95 97.47-115.53-45.49-18.97-100.76-18.29-151.02 6.36-50.26 24.66-84.63 67.95-97.47 115.53z"/>
	<path class="s1" d="m198.34 289.29l269.22-131.14"/>
	<path class="s0" d="m8.46 230.41c-48.63-7.8-95.24-37.42-125.01-84.77-29.81-47.4-36.28-102.3-22.2-149.53 48.63 7.8 95.24 37.42 125.01 84.77 29.8 47.4 36.28 102.3 22.2 149.53z"/>
	<path class="s2" d="m3.69 225.22l-160.78-252.64"/>
	<path class="s3" d="m5.6 228.1c-15.4 29.68-44.43 53.42-81.31 62.53-36.9 9.11-73.68 1.59-101.13-17.56 15.4-29.69 44.43-53.43 81.3-62.53 36.91-9.11 73.69-1.59 101.14 17.56z"/>
	<path class="s0" d="m189.55 286.83c-2.51 33.35 9.71 68.81 36.29 95.94 26.62 27.15 61.86 40.08 95.28 38.22 2.5-33.35-9.72-68.81-36.3-95.93-26.61-27.16-61.85-40.09-95.27-38.23z"/>
	<path class="s4" d="m29.44 110.36c2.45-5.67 8.72-8.65 14.66-6.96l189.41 53.79c5.83 1.66 9.59 7.32 8.85 13.34l-44.75 363.41c-0.92 7.49-8.31 12.39-15.58 10.33l-289.29-82.16c-7.15-2.03-10.88-9.89-7.94-16.71z"/>
	<path class="s5" d="m63.81 137.15c-6.63-51.39 3.34-148.6 96.27-126.3 92.93 22.31 58.72 117.4 30 162.16"/>
	<path fill-rule="evenodd" class="s3" d="m63.67 150.1c-4.71-1.34-7.37-6.45-5.96-11.44 1.42-4.98 6.37-7.93 11.08-6.59 4.71 1.33 7.37 6.45 5.96 11.43-1.42 4.99-6.37 7.94-11.08 6.6z"/>
	<path fill-rule="evenodd" class="s3" d="m187.91 185.39c-4.71-1.34-7.37-6.45-5.96-11.44 1.42-4.99 6.37-7.94 11.08-6.6 4.71 1.34 7.37 6.45 5.96 11.44-1.42 4.98-6.37 7.93-11.08 6.6z"/>
	<path class="s6" d="m-108.82 382.52l315.82 100.98"/>
</svg>