<svg width="412" height="339" viewBox="0 0 412 339" fill="none" xmlns="http://www.w3.org/2000/svg">
<mask id="path-1-inside-1_100_565" fill="white">
<path d="M146.334 185.901C117.301 189.341 85.8919 179.858 61.233 157.384C36.5532 134.891 23.9803 104.257 24.3913 74.6863C53.4246 71.2464 84.8333 80.7302 109.492 103.204C134.172 125.697 146.745 156.331 146.334 185.901Z"/>
</mask>
<path d="M146.334 185.901C117.301 189.341 85.8919 179.858 61.233 157.384C36.5532 134.891 23.9803 104.257 24.3913 74.6863C53.4246 71.2464 84.8333 80.7302 109.492 103.204C134.172 125.697 146.745 156.331 146.334 185.901Z" fill="#FCCFD8"/>
<path d="M146.334 185.901L146.975 191.371L151.716 190.809L151.783 185.984L146.334 185.901ZM61.233 157.384L57.5863 161.472L57.5863 161.472L61.233 157.384ZM24.3913 74.6863L23.751 69.2161L19.0098 69.7778L18.9427 74.6028L24.3913 74.6863ZM109.492 103.204L113.139 99.1154L113.139 99.1154L109.492 103.204ZM146.334 185.901L145.694 180.43C118.246 183.683 88.3929 174.725 64.8796 153.295L61.233 157.384L57.5863 161.472C83.3908 184.99 116.355 194.999 146.975 191.371L146.334 185.901ZM61.233 157.384L64.8796 153.295C41.3464 131.847 29.4514 102.725 29.8399 74.7698L24.3913 74.6863L18.9427 74.6028C18.5092 105.788 31.7599 137.934 57.5863 161.472L61.233 157.384ZM24.3913 74.6863L25.0316 80.1565C52.4791 76.9045 82.3322 85.8627 105.845 107.292L109.492 103.204L113.139 99.1154C87.3345 75.5976 54.3701 65.5883 23.751 69.2161L24.3913 74.6863ZM109.492 103.204L105.845 107.292C129.379 128.74 141.274 157.863 140.886 185.817L146.334 185.901L151.783 185.984C152.216 154.799 138.965 122.653 113.139 99.1154L109.492 103.204Z" fill="#546224" mask="url(#path-1-inside-1_100_565)"/>
<mask id="path-3-inside-2_100_565" fill="white">
<path d="M144.322 185.032C140.327 204.688 127.583 223.138 107.992 234.42C88.3855 245.71 66.1675 247.376 47.3948 240.807C51.3897 221.151 64.133 202.701 83.7237 191.42C103.33 180.129 125.549 178.463 144.322 185.032Z"/>
</mask>
<path d="M144.322 185.032C140.327 204.688 127.583 223.138 107.992 234.42C88.3855 245.71 66.1675 247.376 47.3948 240.807C51.3897 221.151 64.133 202.701 83.7237 191.42C103.33 180.129 125.549 178.463 144.322 185.032Z" fill="#FCCFD8"/>
<path d="M144.322 185.032L149.667 186.111L150.623 181.406L146.133 179.835L144.322 185.032ZM107.992 234.42L110.682 239.193L110.682 239.193L107.992 234.42ZM47.3948 240.807L42.0495 239.727L41.0932 244.433L45.5836 246.004L47.3948 240.807ZM83.7237 191.42L81.0341 186.647L81.0341 186.647L83.7237 191.42ZM144.322 185.032L138.977 183.953C135.303 202.029 123.543 219.143 105.302 229.647L107.992 234.42L110.682 239.193C131.623 227.133 145.351 207.348 149.667 186.111L144.322 185.032ZM107.992 234.42L105.302 229.647C87.0476 240.159 66.4692 241.65 49.206 235.61L47.3948 240.807L45.5836 246.004C65.8658 253.101 89.7234 251.261 110.682 239.193L107.992 234.42ZM47.3948 240.807L52.7401 241.886C56.4138 223.811 68.1734 206.696 86.4134 196.192L83.7237 191.42L81.0341 186.647C60.0926 198.706 46.3655 218.492 42.0495 239.727L47.3948 240.807ZM83.7237 191.42L86.4134 196.192C104.668 185.68 125.248 184.188 142.511 190.229L144.322 185.032L146.133 179.835C125.851 172.738 101.992 174.578 81.0341 186.647L83.7237 191.42Z" fill="#546224" mask="url(#path-3-inside-2_100_565)"/>
<mask id="path-5-inside-3_100_565" fill="white">
<path d="M258.884 188.899C262.841 208.564 275.55 227.039 295.12 238.358C314.706 249.686 336.923 251.393 355.708 244.859C351.751 225.194 339.042 206.72 319.472 195.401C299.886 184.073 277.67 182.365 258.884 188.899Z"/>
</mask>
<path d="M258.884 188.899C262.841 208.564 275.55 227.039 295.12 238.358C314.706 249.686 336.923 251.393 355.708 244.859C351.751 225.194 339.042 206.72 319.472 195.401C299.886 184.073 277.67 182.365 258.884 188.899Z" fill="#FCCFD8"/>
<path d="M258.884 188.899L253.537 189.968L252.59 185.262L257.083 183.699L258.884 188.899ZM295.12 238.358L292.421 243.126L292.421 243.126L295.12 238.358ZM355.708 244.859L361.056 243.79L362.003 248.496L357.51 250.059L355.708 244.859ZM319.472 195.401L322.171 190.633L322.171 190.633L319.472 195.401ZM258.884 188.899L264.232 187.83C267.87 205.914 279.598 223.052 297.819 233.59L295.12 238.358L292.421 243.126C271.502 231.026 257.812 211.214 253.537 189.968L258.884 188.899ZM295.12 238.358L297.819 233.59C316.055 244.138 336.631 245.667 353.907 239.658L355.708 244.859L357.51 250.059C337.214 257.119 313.358 255.235 292.421 243.126L295.12 238.358ZM355.708 244.859L350.361 245.928C346.722 227.845 334.994 210.707 316.773 200.168L319.472 195.401L322.171 190.633C343.09 202.733 356.781 222.544 361.056 243.79L355.708 244.859ZM319.472 195.401L316.773 200.168C298.538 189.621 277.961 188.091 260.686 194.1L258.884 188.899L257.083 183.699C277.379 176.639 301.234 178.524 322.171 190.633L319.472 195.401Z" fill="#546224" mask="url(#path-5-inside-3_100_565)"/>
<mask id="path-7-inside-4_100_565" fill="white">
<path d="M265.523 186.018C294.568 189.535 326.023 180.114 350.743 157.67C375.464 135.225 388.095 104.616 387.741 75.0455C358.697 71.529 327.242 80.9499 302.523 103.393C277.801 125.839 265.169 156.448 265.523 186.018Z"/>
</mask>
<path d="M265.523 186.018C294.568 189.535 326.023 180.114 350.743 157.67C375.464 135.225 388.095 104.616 387.741 75.0455C358.697 71.529 327.242 80.9499 302.523 103.393C277.801 125.839 265.169 156.448 265.523 186.018Z" fill="#FCCFD8"/>
<path d="M265.523 186.018L264.869 191.486L260.132 190.913L260.074 186.091L265.523 186.018ZM350.743 157.67L354.382 161.766L354.382 161.766L350.743 157.67ZM387.741 75.0455L388.395 69.577L393.132 70.1505L393.19 74.9726L387.741 75.0455ZM302.523 103.393L298.884 99.2978L298.884 99.2978L302.523 103.393ZM265.523 186.018L266.177 180.549C293.635 183.874 323.532 174.976 347.104 153.575L350.743 157.67L354.382 161.766C328.513 185.252 295.5 195.195 264.869 191.486L265.523 186.018ZM350.743 157.67L347.104 153.575C370.677 132.172 382.627 103.073 382.292 75.1185L387.741 75.0455L393.19 74.9726C393.563 106.158 380.252 138.277 354.382 161.766L350.743 157.67ZM387.741 75.0455L387.087 80.5141C359.629 77.1897 329.733 86.088 306.162 107.489L302.523 103.393L298.884 99.2978C324.752 75.8119 357.764 65.8683 388.395 69.577L387.741 75.0455ZM302.523 103.393L306.162 107.489C282.588 128.891 270.637 157.99 270.972 185.945L265.523 186.018L260.074 186.091C259.701 154.905 273.014 122.786 298.884 99.2978L302.523 103.393Z" fill="#546224" mask="url(#path-7-inside-4_100_565)"/>
<path d="M131.204 101.427C132.265 93.3305 139.168 87.2778 147.334 87.2855L259.303 87.3918C267.326 87.3994 274.144 93.2609 275.354 101.192L308.736 319.945C310.238 329.79 302.613 338.658 292.654 338.649L118.661 338.484C108.853 338.474 101.288 329.846 102.562 320.121L131.204 101.427Z" fill="#546224"/>
<path d="M158.708 105.412C145.73 74.4093 134.981 11.7795 195.817 9.27893C256.652 6.77834 252.175 72.3784 242.331 105.491" stroke="#546224" stroke-width="18.4194" stroke-linecap="round"/>
<ellipse cx="160.648" cy="107.293" rx="5.87317" ry="5.62445" transform="rotate(0.0543909 160.648 107.293)" fill="#C8C260"/>
<ellipse cx="243.181" cy="107.371" rx="5.56405" ry="5.62445" transform="rotate(0.0543909 243.181 107.371)" fill="#C8C260"/>
</svg>
