<svg version="1.2" xmlns="http://www.w3.org/2000/svg" viewBox="0 0 355 322" width="355" height="322">
	<defs>
		<clipPath clipPathUnits="userSpaceOnUse" id="cp1">
			<path d="m226.5 123.07c17.66 13.85 29.67 35.68 31.03 60.6 1.36 24.91-8.22 47.52-24.3 62.58-17.66-13.85-29.67-35.68-31.03-60.59-1.36-24.92 8.23-47.52 24.3-62.59z"/>
		</clipPath>
		<clipPath clipPathUnits="userSpaceOnUse" id="cp2">
			<path d="m226.53 123.04c14.15-17.36 36.72-28.96 62.7-29.89 25.97-0.94 49.72 9 65.72 25.27-14.16 17.36-36.73 28.97-62.71 29.9-25.97 0.94-49.72-9-65.71-25.28z"/>
		</clipPath>
		<clipPath clipPathUnits="userSpaceOnUse" id="cp3">
			<path d="m219.78-0.04c17.66 13.85 29.67 35.67 31.03 60.59 1.36 24.91-8.23 47.52-24.3 62.58-17.66-13.85-29.67-35.67-31.03-60.59-1.36-24.91 8.23-47.52 24.3-62.58z"/>
		</clipPath>
		<clipPath clipPathUnits="userSpaceOnUse" id="cp4">
			<path d="m100.64 127.58c13.89-17.02 36.03-28.4 61.5-29.32 25.48-0.92 48.77 8.83 64.46 24.79-13.89 17.03-36.03 28.41-61.5 29.32-25.48 0.92-48.77-8.82-64.46-24.79z"/>
		</clipPath>
	</defs>
	<style>
		.s0 { fill: none;stroke: #546224;stroke-linecap: round;stroke-width: 6.4 } 
		.s1 { fill: #fccfd8 } 
		.s2 { fill: #496224 } 
	</style>
	<path class="s0" d="m3.79 318.04l222.67-192.29"/>
	<path class="s1" d="m226.5 123.07c17.66 13.85 29.67 35.68 31.03 60.6 1.36 24.91-8.22 47.52-24.3 62.58-17.66-13.85-29.67-35.68-31.03-60.59-1.36-24.92 8.23-47.52 24.3-62.59z"/>
	<g id="Clip-Path" clip-path="url(#cp1)">
		<path class="s2" d="m226.5 123.07l1.97-2.48-2.2-1.72-1.99 1.87zm0 0l-1.97 2.48c16.92 13.27 28.48 34.23 29.79 58.23l3.21-0.11 3.2-0.12c-1.41-25.83-13.87-48.53-32.27-62.96zm6.73 123.18l-1.97 2.48 2.2 1.72 1.99-1.87zm0 0l1.97-2.48c-16.91-13.27-28.48-34.23-29.79-58.23l-3.21 0.12-3.2 0.11c1.41 25.83 13.87 48.53 32.27 62.96zm24.3-62.59l-3.2 0.12c1.31 24-7.93 45.71-23.33 60.14l2.23 2.33 2.23 2.33c16.75-15.7 26.69-39.2 25.28-65.03zm0 0l3.2-0.12zm-55.33 1.99l3.2-0.11c-1.31-24 7.93-45.71 23.33-60.14l-2.23-2.33-2.23-2.33c-16.75 15.7-26.69 39.2-25.28 65.03zm0 0l-3.2 0.11z"/>
	</g>
	<path class="s1" d="m226.53 123.04c14.15-17.36 36.72-28.96 62.7-29.89 25.97-0.94 49.72 9 65.72 25.27-14.16 17.36-36.73 28.97-62.71 29.9-25.97 0.94-49.72-9-65.71-25.28z"/>
	<g id="Clip-Path" clip-path="url(#cp2)">
		<path class="s2" d="m226.53 123.04l-2.51-2.02-1.78 2.18 2.01 2.04zm0 0l2.51 2.03c13.57-16.64 35.28-27.84 60.36-28.75l-0.17-3.18-0.18-3.17c-26.86 0.96-50.29 12.97-65.03 31.05zm128.42-4.62l2.51 2.02 1.77-2.18-2-2.04zm0 0l-2.51-2.03c-13.57 16.64-35.29 27.84-60.37 28.75l0.17 3.18 0.18 3.17c26.86-0.96 50.29-12.97 65.04-31.05zm-65.72-25.27l0.17 3.17c25.09-0.9 47.94 8.7 63.27 24.3l2.28-2.2 2.27-2.2c-16.65-16.95-41.3-27.22-68.17-26.25zm0 0l-0.17-3.18zm3.02 55.17l-0.18-3.18c-25.08 0.91-47.93-8.69-63.26-24.29l-2.28 2.2-2.28 2.19c16.65 16.96 41.3 27.23 68.17 26.26zm0 0l0.17 3.18z"/>
	</g>
	<path class="s1" d="m219.78-0.04c17.66 13.85 29.67 35.67 31.03 60.59 1.36 24.91-8.23 47.52-24.3 62.58-17.66-13.85-29.67-35.67-31.03-60.59-1.36-24.91 8.23-47.52 24.3-62.58z"/>
	<g id="Clip-Path" clip-path="url(#cp3)">
		<path class="s2" d="m219.78-0.04l1.96-2.49-2.19-1.72-2 1.88zm0 0l-1.96 2.48c16.91 13.26 28.48 34.22 29.79 58.22l3.2-0.11 3.21-0.12c-1.41-25.83-13.87-48.52-32.27-62.96zm6.73 123.18l-1.97 2.48 2.2 1.72 1.99-1.87zm0 0l1.97-2.48c-16.91-13.27-28.48-34.23-29.79-58.23l-3.21 0.12-3.2 0.11c1.41 25.83 13.87 48.53 32.27 62.96zm24.3-62.58l-3.2 0.11c1.31 24-7.93 45.71-23.33 60.14l2.23 2.33 2.23 2.33c16.75-15.7 26.69-39.2 25.28-65.03zm0 0l3.2-0.11zm-55.33 1.99l3.2-0.12c-1.31-24 7.93-45.71 23.33-60.14l-2.23-2.33-2.23-2.33c-16.75 15.7-26.69 39.2-25.28 65.03zm0 0l-3.2 0.12z"/>
	</g>
	<path class="s1" d="m100.64 127.58c13.89-17.02 36.03-28.4 61.5-29.32 25.48-0.92 48.77 8.83 64.46 24.79-13.89 17.03-36.03 28.41-61.5 29.32-25.48 0.92-48.77-8.82-64.46-24.79z"/>
	<g id="Clip-Path" clip-path="url(#cp4)">
		<path class="s2" d="m100.64 127.58l-2.51-2.02-1.78 2.18 2.01 2.04zm0 0l2.51 2.03c13.3-16.31 34.58-27.29 59.17-28.17l-0.18-3.18-0.17-3.18c-26.36 0.95-49.37 12.73-63.84 30.48zm125.96-4.54l2.51 2.03 1.78-2.18-2.01-2.05zm0 0l-2.51-2.02c-13.3 16.31-34.58 27.28-59.17 28.17l0.18 3.18 0.17 3.18c26.37-0.95 49.37-12.73 63.84-30.48zm-64.46-24.79l0.18 3.18c24.58-0.89 46.97 8.52 62 23.81l2.28-2.2 2.28-2.2c-16.35-16.64-40.55-26.72-66.91-25.77zm0 0l-0.18-3.18zm2.96 54.12l-0.17-3.18c-24.59 0.88-46.98-8.52-62.01-23.81l-2.28 2.2-2.28 2.2c16.35 16.63 40.55 26.71 66.91 25.77zm0 0l0.18 3.17z"/>
	</g>
</svg>